#!OML:ASF X:\für Bonn\!DataBase\2005_08_11_Bastian_Final\c3d\Bastian.ASF
:FULLY-SPECIFIED
:DEGREES
106
root 0.109808 9.97302 6.93774 168.641 -7.16658 -175.367
lowerback 35.6645 -1.47548 4.96339
upperback 7.84094 -2.52223 1.68929
thorax -9.12183 -2.34921 0.329991
lowerneck -11.9819 -4.78782 -2.98486
upperneck -12.7509 -7.29603 10.8427
head -1.52545 -4.46209 3.9222
rclavicle -1.73626e-015 1.81981e-014
rhumerus 69.7756 7.47064 1.26355
rradius 39.3242
rwrist -51.0347
rhand -46.7638 -4.2402
rfingers 7.12502
rthumb -19.4802 -33.2844
lclavicle -1.73626e-015 1.81981e-014
lhumerus 65.2064 -13.32 -12.6808
lradius 31.9838
lwrist 10.7639
lhand -46.8913 18.678
lfingers 7.12502
lthumb -19.6028 47.7097
rfemur -56.526 -24.7424 27.9293
rtibia 133.229
rfoot -37.6698 0.0957264
rtoes -3.57452
lfemur -58.7858 12.4829 -12.4746
ltibia 133.4
lfoot -36.1024 -14.2894
ltoes -17.532
107
root 0.11209 10.1996 6.95872 168.896 -7.28808 -175.465
lowerback 35.6068 -1.51857 4.94931
upperback 7.78925 -2.56083 1.66149
thorax -9.16142 -2.35654 0.321219
lowerneck -11.8988 -4.74964 -2.94978
upperneck -12.7367 -7.23829 10.8462
head -1.53972 -4.43215 3.92202
rclavicle 4.23411e-014 -7.97623e-015
rhumerus 69.7881 7.41133 1.35935
rradius 39.4469
rwrist -51.189
rhand -46.9406 -4.14698
rfingers 7.12502
rthumb -19.6502 -33.1739
lclavicle 4.23411e-014 -7.97623e-015
lhumerus 65.3761 -13.3436 -13.2406
lradius 32.1674
lwrist 11.2138
lhand -46.8967 19.1004
lfingers 7.12502
lthumb -19.6079 48.1316
rfemur -55.9789 -23.4328 27.9471
rtibia 131.383
rfoot -36.9126 -0.30177
rtoes -4.22044
lfemur -58.087 11.2277 -12.8941
ltibia 131.379
lfoot -35.4469 -13.627
ltoes -17.7404
108
root 0.114929 10.4312 6.97806 169.171 -7.40727 -175.561
lowerback 35.5196 -1.55609 4.92041
upperback 7.73653 -2.59634 1.63924
thorax -9.19097 -2.36119 0.323486
lowerneck -11.8799 -4.71105 -2.87719
upperneck -12.7044 -7.18979 10.8164
head -1.53923 -4.40721 3.89965
rclavicle 1.36696e-014 2.26118e-015
rhumerus 69.8141 7.3688 1.46488
rradius 39.5622
rwrist -51.3393
rhand -47.1039 -4.0189
rfingers 7.12502
rthumb -19.8071 -33.0297
lclavicle 1.36696e-014 2.26118e-015
lhumerus 65.5431 -13.3365 -13.6402
lradius 32.3194
lwrist 11.6016
lhand -46.8876 19.434
lfingers 7.12502
lthumb -19.5992 48.4661
rfemur -55.3791 -22.2059 27.9568
rtibia 129.464
rfoot -36.1878 -0.691246
rtoes -4.676
lfemur -57.3601 10.1246 -13.2596
ltibia 129.297
lfoot -34.8214 -13.0798
ltoes -17.8864
109
root 0.117118 10.6675 6.99511 169.455 -7.54515 -175.644
lowerback 35.3958 -1.60588 4.91432
upperback 7.6733 -2.63454 1.62247
thorax -9.2189 -2.36519 0.319273
lowerneck -11.886 -4.68335 -2.85776
upperneck -12.6515 -7.14901 10.8161
head -1.52394 -4.38259 3.89539
rclavicle 7.58488e-015 4.64659e-015
rhumerus 69.8382 7.34912 1.33637
rradius 39.5866
rwrist -51.1377
rhand -47.1203 -4.05153
rfingers 7.12502
rthumb -19.823 -33.0606
lclavicle 7.58488e-015 4.64659e-015
lhumerus 65.7181 -13.3364 -13.8521
lradius 32.421
lwrist 11.8467
lhand -46.9286 19.6314
lfingers 7.12502
lthumb -19.6387 48.6595
rfemur -54.72 -21.1231 27.9684
rtibia 127.48
rfoot -35.5023 -1.08062
rtoes -4.97594
lfemur -56.5479 9.11901 -13.573
ltibia 127.133
lfoot -34.2159 -12.6304
ltoes -17.7407
110
root 0.119198 10.9068 7.00975 169.731 -7.67733 -175.746
lowerback 35.2443 -1.64815 4.88355
upperback 7.63027 -2.67914 1.59782
thorax -9.21428 -2.37284 0.320001
lowerneck -11.964 -4.64713 -2.7786
upperneck -12.5803 -7.11073 10.7595
head -1.49479 -4.36027 3.85688
rclavicle -1.37907e-015 -5.37961e-015
rhumerus 69.8893 7.31898 1.04383
rradius 39.545
rwrist -50.8249
rhand -47.0867 -4.06415
rfingers 7.12502
rthumb -19.7906 -33.0766
lclavicle -1.37907e-015 -5.37961e-015
lhumerus 65.8732 -13.3026 -13.951
lradius 32.5162
lwrist 12.0505
lhand -46.9507 19.6917
lfingers 7.12502
lthumb -19.6599 48.7176
rfemur -53.9789 -20.148 27.9175
rtibia 125.427
rfoot -34.833 -1.41489
rtoes -5.15504
lfemur -55.6326 8.22976 -13.876
ltibia 124.894
lfoot -33.6654 -12.2155
ltoes -17.6336
111
root 0.121959 11.1457 7.02162 170.005 -7.82161 -175.842
lowerback 35.0617 -1.68884 4.84207
upperback 7.58178 -2.72209 1.58838
thorax -9.20315 -2.3784 0.340482
lowerneck -11.9634 -4.60592 -2.69612
upperneck -12.5764 -7.06519 10.6892
head -1.50252 -4.33896 3.81889
rclavicle 1.8723e-014 -1.15792e-014
rhumerus 69.9525 7.3229 0.632274
rradius 39.4417
rwrist -50.2805
rhand -46.9286 -4.15587
rfingers 7.12502
rthumb -19.6387 -33.1839
lclavicle 1.8723e-014 -1.15792e-014
lhumerus 66.0333 -13.3038 -14.0056
lradius 32.6076
lwrist 12.2412
lhand -47.0348 19.6532
lfingers 7.12502
lthumb -19.7407 48.6708
rfemur -53.1717 -19.2912 27.8582
rtibia 123.325
rfoot -34.2192 -1.75854
rtoes -5.44682
lfemur -54.6579 7.45264 -14.1241
ltibia 122.612
lfoot -33.1364 -11.9354
ltoes -17.2037
112
root 0.124263 11.3885 7.03006 170.289 -7.96479 -175.941
lowerback 34.8213 -1.72644 4.8116
upperback 7.54128 -2.75906 1.57536
thorax -9.16141 -2.38018 0.345925
lowerneck -11.9677 -4.587 -2.66738
upperneck -12.5614 -7.04107 10.6597
head -1.50063 -4.3256 3.80358
rclavicle -8.85834e-015 7.45443e-016
rhumerus 69.9816 7.33096 0.149083
rradius 39.3347
rwrist -49.7085
rhand -46.6835 -4.31077
rfingers 7.12502
rthumb -19.403 -33.3627
lclavicle -8.85834e-015 7.45443e-016
lhumerus 66.2169 -13.2939 -13.9799
lradius 32.6688
lwrist 12.3569
lhand -47.153 19.5697
lfingers 7.12502
lthumb -19.8543 48.5755
rfemur -52.2857 -18.4997 27.7708
rtibia 121.146
rfoot -33.6185 -2.06357
rtoes -5.58455
lfemur -53.636 6.76787 -14.3618
ltibia 120.268
lfoot -32.6376 -11.6929
ltoes -16.8886
113
root 0.12692 11.6293 7.0367 170.575 -8.1134 -176.063
lowerback 34.459 -1.75185 4.75571
upperback 7.5896 -2.79913 1.54595
thorax -9.09785 -2.38092 0.328828
lowerneck -11.9168 -4.55238 -2.57591
upperneck -12.603 -7.00418 10.6182
head -1.53048 -4.31312 3.7773
rclavicle 8.32411e-016 1.25234e-014
rhumerus 70.0037 7.37029 -0.361254
rradius 39.2032
rwrist -49.1233
rhand -46.4575 -4.44677
rfingers 7.12502
rthumb -19.1856 -33.5204
lclavicle 8.32411e-016 1.25234e-014
lhumerus 66.4058 -13.2859 -13.9426
lradius 32.7515
lwrist 12.3865
lhand -47.2688 19.445
lfingers 7.12502
lthumb -19.9657 48.4393
rfemur -51.3648 -17.795 27.6498
rtibia 118.933
rfoot -33.0652 -2.35113
rtoes -5.60148
lfemur -52.5751 6.15121 -14.599
ltibia 117.887
lfoot -32.1251 -11.5061
ltoes -16.3707
114
root 0.128306 11.8702 7.04206 170.868 -8.25741 -176.165
lowerback 34.1529 -1.79001 4.71741
upperback 7.55163 -2.83945 1.53325
thorax -9.02811 -2.38259 0.33643
lowerneck -11.9173 -4.5294 -2.52259
upperneck -12.59 -6.97817 10.5559
head -1.53209 -4.29923 3.74628
rclavicle -3.05134e-014 -1.04362e-015
rhumerus 70.0483 7.42582 -0.801217
rradius 39.0871
rwrist -48.6278
rhand -46.1968 -4.51348
rfingers 7.12502
rthumb -18.935 -33.6119
lclavicle -3.05134e-014 -1.04362e-015
lhumerus 66.5571 -13.2939 -13.8368
lradius 32.8267
lwrist 12.3354
lhand -47.399 19.3436
lfingers 7.12502
lthumb -20.0908 48.3248
rfemur -50.4142 -17.1516 27.5351
rtibia 116.673
rfoot -32.517 -2.59183
rtoes -5.54372
lfemur -51.5094 5.61628 -14.8095
ltibia 115.472
lfoot -31.6328 -11.3159
ltoes -15.9267
115
root 0.130242 12.1079 7.04591 171.168 -8.39838 -176.291
lowerback 33.7955 -1.81859 4.66965
upperback 7.53016 -2.87665 1.49164
thorax -8.92114 -2.38187 0.313989
lowerneck -11.9181 -4.51033 -2.45997
upperneck -12.5831 -6.95864 10.5322
head -1.53399 -4.29073 3.72699
rclavicle -2.66371e-014 2.84759e-014
rhumerus 70.0472 7.48349 -1.21978
rradius 39.0089
rwrist -48.2563
rhand -45.9808 -4.53472
rfingers 7.12502
rthumb -18.7272 -33.6533
lclavicle -2.66371e-014 2.84759e-014
lhumerus 66.7479 -13.2816 -13.7309
lradius 32.8694
lwrist 12.2369
lhand -47.5201 19.1185
lfingers 7.12502
lthumb -20.2072 48.0875
rfemur -49.4464 -16.5452 27.3796
rtibia 114.392
rfoot -32.0092 -2.764
rtoes -5.35349
lfemur -50.4237 5.14163 -15.0315
ltibia 113.034
lfoot -31.1346 -11.1945
ltoes -15.3738
116
root 0.131471 12.3441 7.05044 171.453 -8.54109 -176.41
lowerback 33.4665 -1.84531 4.62615
upperback 7.4938 -2.90492 1.46844
thorax -8.83905 -2.37734 0.307249
lowerneck -11.9481 -4.50765 -2.44362
upperneck -12.5253 -6.9526 10.5126
head -1.51127 -4.28213 3.71396
rclavicle -1.27222e-014 1.14301e-014
rhumerus 70.0441 7.57885 -1.57037
rradius 38.925
rwrist -47.9388
rhand -45.791 -4.46906
rfingers 7.12502
rthumb -18.5446 -33.6051
lclavicle -1.27222e-014 1.14301e-014
lhumerus 66.9252 -13.2799 -13.5263
lradius 32.9115
lwrist 12.0365
lhand -47.5826 18.9435
lfingers 7.12502
lthumb -20.2673 47.9061
rfemur -48.4443 -15.9994 27.2311
rtibia 112.08
rfoot -31.5345 -2.93235
rtoes -5.00743
lfemur -49.3316 4.71484 -15.2369
ltibia 110.569
lfoot -30.6312 -11.0419
ltoes -14.8577
117
root 0.132621 12.5826 7.05253 171.762 -8.6633 -176.56
lowerback 33.0884 -1.85404 4.51299
upperback 7.46112 -2.93338 1.46013
thorax -8.73122 -2.37142 0.350416
lowerneck -11.9821 -4.49468 -2.44285
upperneck -12.4785 -6.93317 10.4719
head -1.49286 -4.26681 3.69737
rclavicle -9.44227e-016 -4.32357e-015
rhumerus 70.0713 7.72504 -1.94036
rradius 38.849
rwrist -47.6117
rhand -45.663 -4.34239
rfingers 7.12502
rthumb -18.4215 -33.4901
lclavicle -9.44227e-016 -4.32357e-015
lhumerus 67.045 -13.279 -13.246
lradius 32.9355
lwrist 11.7947
lhand -47.6277 18.7308
lfingers 7.12502
lthumb -20.3107 47.6888
rfemur -47.4262 -15.4567 27.0451
rtibia 109.722
rfoot -31.0664 -3.09973
rtoes -4.67673
lfemur -48.2084 4.34506 -15.473
ltibia 108.046
lfoot -30.1815 -10.912
ltoes -14.3434
118
root 0.13294 12.8184 7.05439 172.062 -8.80056 -176.706
lowerback 32.6977 -1.86551 4.42971
upperback 7.41919 -2.95231 1.43746
thorax -8.62825 -2.3599 0.358755
lowerneck -11.9878 -4.50498 -2.42663
upperneck -12.4227 -6.94216 10.4413
head -1.47425 -4.26493 3.6808
rclavicle -1.4238e-014 1.65985e-014
rhumerus 70.0559 7.95439 -2.39126
rradius 38.7347
rwrist -47.1985
rhand -45.5986 -4.16957
rfingers 7.12502
rthumb -18.3595 -33.3232
lclavicle -1.4238e-014 1.65985e-014
lhumerus 67.2305 -13.3002 -12.7906
lradius 32.886
lwrist 11.3466
lhand -47.6007 18.473
lfingers 7.12502
lthumb -20.2847 47.4338
rfemur -46.3756 -14.9903 26.8484
rtibia 107.338
rfoot -30.6419 -3.19137
rtoes -4.17295
lfemur -47.0579 3.98685 -15.692
ltibia 105.493
lfoot -29.7008 -10.8164
ltoes -13.664
119
root 0.133303 13.053 7.054 172.371 -8.93723 -176.83
lowerback 31.9476 -1.85939 4.30444
upperback 7.8286 -2.99088 1.43903
thorax -8.62098 -2.34888 0.409298
lowerneck -12.0371 -4.50903 -2.43225
upperneck -12.3285 -6.94134 10.4239
head -1.43496 -4.25498 3.67031
rclavicle -1.9133e-014 2.79789e-014
rhumerus 70.049 8.18633 -2.59668
rradius 38.7048
rwrist -46.9858
rhand -45.6287 -4.02576
rfingers 7.12502
rthumb -18.3885 -33.1766
lclavicle -1.9133e-014 2.79789e-014
lhumerus 67.3639 -13.3244 -12.0407
lradius 32.7254
lwrist 10.6046
lhand -47.4909 18.1515
lfingers 7.12502
lthumb -20.1792 47.1235
rfemur -45.3032 -14.5603 26.6819
rtibia 104.918
rfoot -30.243 -3.30482
rtoes -3.68811
lfemur -45.8965 3.66722 -15.8864
ltibia 102.905
lfoot -29.2577 -10.7174
ltoes -13.1317
